<mxfile host="Electron" modified="2024-02-27T03:12:58.614Z" agent="Mozilla/5.0 (Windows NT 10.0; Win64; x64) AppleWebKit/537.36 (KHTML, like Gecko) draw.io/23.0.2 Chrome/120.0.6099.109 Electron/28.1.0 Safari/537.36" etag="zyb4zWu6r2Sb0UxJ8di7" version="23.0.2" type="device">
  <diagram name="페이지-1" id="hli0ejPnvxswHnD7tSV9">
    <mxGraphModel dx="1098" dy="820" grid="1" gridSize="10" guides="1" tooltips="1" connect="1" arrows="1" fold="1" page="1" pageScale="1" pageWidth="827" pageHeight="1169" background="#ffffff" math="0" shadow="0">
      <root>
        <mxCell id="0" />
        <mxCell id="1" parent="0" />
        <mxCell id="XqvDmJnWtBqZGA_1w7zV-1" value="Actor" style="shape=umlActor;verticalLabelPosition=bottom;verticalAlign=top;html=1;outlineConnect=0;strokeColor=#1C1C1C;fontColor=#050505;strokeWidth=3;labelBackgroundColor=none;" parent="1" vertex="1">
          <mxGeometry x="65" y="364.66" width="30" height="60" as="geometry" />
        </mxCell>
        <mxCell id="XqvDmJnWtBqZGA_1w7zV-8" value="&amp;lt;&amp;lt;include&amp;gt;&amp;gt;" style="edgeStyle=orthogonalEdgeStyle;rounded=0;orthogonalLoop=1;jettySize=auto;html=1;dashed=1;endArrow=open;endFill=0;strokeColor=#1C1C1C;labelBackgroundColor=none;fontColor=#050505;labelPosition=center;verticalLabelPosition=top;align=center;verticalAlign=bottom;" parent="1" source="XqvDmJnWtBqZGA_1w7zV-2" target="XqvDmJnWtBqZGA_1w7zV-4" edge="1">
          <mxGeometry relative="1" as="geometry" />
        </mxCell>
        <mxCell id="XqvDmJnWtBqZGA_1w7zV-2" value="매출 분석" style="ellipse;whiteSpace=wrap;html=1;strokeColor=#1C1C1C;labelBackgroundColor=none;fontColor=#050505;fillColor=#FFFFFF;" parent="1" vertex="1">
          <mxGeometry x="160" y="370" width="80" height="50" as="geometry" />
        </mxCell>
        <mxCell id="XqvDmJnWtBqZGA_1w7zV-3" value="" style="endArrow=none;html=1;rounded=0;entryX=0;entryY=0.5;entryDx=0;entryDy=0;strokeColor=#1C1C1C;labelBackgroundColor=none;fontColor=#050505;" parent="1" source="XqvDmJnWtBqZGA_1w7zV-1" target="XqvDmJnWtBqZGA_1w7zV-2" edge="1">
          <mxGeometry width="50" height="50" relative="1" as="geometry">
            <mxPoint x="390" y="450" as="sourcePoint" />
            <mxPoint x="440" y="400" as="targetPoint" />
          </mxGeometry>
        </mxCell>
        <mxCell id="XqvDmJnWtBqZGA_1w7zV-10" value="&amp;lt;&amp;lt;include&amp;gt;&amp;gt;" style="edgeStyle=orthogonalEdgeStyle;rounded=0;orthogonalLoop=1;jettySize=auto;html=1;dashed=1;endArrow=open;endFill=0;strokeColor=#1C1C1C;labelBackgroundColor=#FFFFFF;fontColor=#050505;labelPosition=center;verticalLabelPosition=top;align=center;verticalAlign=bottom;" parent="1" source="XqvDmJnWtBqZGA_1w7zV-4" target="XqvDmJnWtBqZGA_1w7zV-9" edge="1">
          <mxGeometry relative="1" as="geometry" />
        </mxCell>
        <mxCell id="XqvDmJnWtBqZGA_1w7zV-4" value="지역 선택" style="ellipse;whiteSpace=wrap;html=1;strokeColor=#1C1C1C;labelBackgroundColor=none;fontColor=#050505;fillColor=#FFFFFF;" parent="1" vertex="1">
          <mxGeometry x="329" y="369.66" width="80" height="50" as="geometry" />
        </mxCell>
        <mxCell id="XqvDmJnWtBqZGA_1w7zV-12" value="&amp;lt;&amp;lt;include&amp;gt;&amp;gt;" style="edgeStyle=orthogonalEdgeStyle;rounded=0;orthogonalLoop=1;jettySize=auto;html=1;dashed=1;endArrow=open;endFill=0;strokeColor=#1C1C1C;labelBackgroundColor=none;fontColor=#050505;verticalAlign=bottom;" parent="1" source="XqvDmJnWtBqZGA_1w7zV-9" target="XqvDmJnWtBqZGA_1w7zV-11" edge="1">
          <mxGeometry relative="1" as="geometry" />
        </mxCell>
        <mxCell id="XqvDmJnWtBqZGA_1w7zV-9" value="개원 규모&lt;br&gt;선택" style="ellipse;whiteSpace=wrap;html=1;strokeColor=#1C1C1C;labelBackgroundColor=none;fontColor=#050505;fillColor=#FFFFFF;" parent="1" vertex="1">
          <mxGeometry x="499" y="370" width="80" height="50" as="geometry" />
        </mxCell>
        <mxCell id="XqvDmJnWtBqZGA_1w7zV-16" value="&amp;lt;&amp;lt;include&amp;gt;&amp;gt;" style="edgeStyle=orthogonalEdgeStyle;rounded=0;orthogonalLoop=1;jettySize=auto;html=1;dashed=1;endArrow=open;endFill=0;strokeColor=#1C1C1C;labelBackgroundColor=none;fontColor=#050505;verticalAlign=bottom;exitX=1;exitY=0.5;exitDx=0;exitDy=0;" parent="1" source="XqvDmJnWtBqZGA_1w7zV-11" target="XqvDmJnWtBqZGA_1w7zV-13" edge="1">
          <mxGeometry relative="1" as="geometry">
            <mxPoint x="784.0000000000005" y="397.1600000000001" as="sourcePoint" />
          </mxGeometry>
        </mxCell>
        <mxCell id="XqvDmJnWtBqZGA_1w7zV-11" value="주임급 고용인&lt;br&gt;수 선택" style="ellipse;whiteSpace=wrap;html=1;strokeColor=#1C1C1C;labelBackgroundColor=none;fontColor=#050505;fillColor=#FFFFFF;" parent="1" vertex="1">
          <mxGeometry x="660" y="367.66" width="88" height="55" as="geometry" />
        </mxCell>
        <mxCell id="XqvDmJnWtBqZGA_1w7zV-23" value="&amp;lt;&amp;lt;include&amp;gt;&amp;gt;" style="edgeStyle=orthogonalEdgeStyle;rounded=0;orthogonalLoop=1;jettySize=auto;html=1;entryX=0;entryY=0.5;entryDx=0;entryDy=0;dashed=1;endArrow=open;endFill=0;strokeColor=#1C1C1C;labelBackgroundColor=none;fontColor=#050505;verticalAlign=bottom;" parent="1" source="XqvDmJnWtBqZGA_1w7zV-13" target="XqvDmJnWtBqZGA_1w7zV-24" edge="1">
          <mxGeometry relative="1" as="geometry" />
        </mxCell>
        <mxCell id="XqvDmJnWtBqZGA_1w7zV-13" value="신입급 고용인 수 선택" style="ellipse;whiteSpace=wrap;html=1;strokeColor=#1C1C1C;labelBackgroundColor=none;fontColor=#050505;fillColor=#FFFFFF;" parent="1" vertex="1">
          <mxGeometry x="844" y="368.66" width="88" height="55" as="geometry" />
        </mxCell>
        <mxCell id="XqvDmJnWtBqZGA_1w7zV-21" value="&amp;lt;&amp;lt;extend&amp;gt;&amp;gt;" style="rounded=0;orthogonalLoop=1;jettySize=auto;html=1;exitX=0;exitY=0.5;exitDx=0;exitDy=0;entryX=1;entryY=1;entryDx=0;entryDy=0;dashed=1;endArrow=open;endFill=0;strokeColor=#1C1C1C;labelBackgroundColor=#FFFFFF;fontColor=#050505;" parent="1" source="XqvDmJnWtBqZGA_1w7zV-17" target="XqvDmJnWtBqZGA_1w7zV-2" edge="1">
          <mxGeometry relative="1" as="geometry" />
        </mxCell>
        <mxCell id="XqvDmJnWtBqZGA_1w7zV-17" value="지역 선택 &lt;br&gt;에러 출력" style="ellipse;whiteSpace=wrap;html=1;strokeColor=#1C1C1C;labelBackgroundColor=none;fontColor=#050505;fillColor=#FFFFFF;" parent="1" vertex="1">
          <mxGeometry x="329" y="470" width="80" height="50" as="geometry" />
        </mxCell>
        <mxCell id="XqvDmJnWtBqZGA_1w7zV-25" value="&amp;lt;&amp;lt;include&amp;gt;&amp;gt;" style="rounded=0;orthogonalLoop=1;jettySize=auto;html=1;dashed=1;endArrow=open;endFill=0;strokeColor=#1C1C1C;labelBackgroundColor=#FFFFFF;fontColor=#050505;verticalAlign=bottom;exitX=1;exitY=0.5;exitDx=0;exitDy=0;" parent="1" source="XqvDmJnWtBqZGA_1w7zV-22" target="XqvDmJnWtBqZGA_1w7zV-24" edge="1">
          <mxGeometry relative="1" as="geometry" />
        </mxCell>
        <mxCell id="XqvDmJnWtBqZGA_1w7zV-22" value="대출 금액 입력" style="ellipse;whiteSpace=wrap;html=1;strokeColor=#1C1C1C;labelBackgroundColor=none;fontColor=#050505;fillColor=#FFFFFF;" parent="1" vertex="1">
          <mxGeometry x="960" y="270" width="80" height="50" as="geometry" />
        </mxCell>
        <mxCell id="XqvDmJnWtBqZGA_1w7zV-24" value="분석 결과 &lt;br&gt;확인" style="ellipse;whiteSpace=wrap;html=1;strokeColor=#1C1C1C;labelBackgroundColor=none;fontColor=#050505;fillColor=#FFFFFF;" parent="1" vertex="1">
          <mxGeometry x="1090" y="371.16" width="80" height="50" as="geometry" />
        </mxCell>
        <mxCell id="XqvDmJnWtBqZGA_1w7zV-26" value="&amp;lt;&amp;lt;extend&amp;gt;&amp;gt;" style="endArrow=open;html=1;rounded=0;exitX=0;exitY=0.5;exitDx=0;exitDy=0;entryX=0.5;entryY=0;entryDx=0;entryDy=0;dashed=1;endFill=0;strokeColor=#1C1C1C;labelBackgroundColor=#FFFFFF;fontColor=#050505;verticalAlign=bottom;" parent="1" source="XqvDmJnWtBqZGA_1w7zV-22" target="XqvDmJnWtBqZGA_1w7zV-13" edge="1">
          <mxGeometry width="50" height="50" relative="1" as="geometry">
            <mxPoint x="814" y="448.66" as="sourcePoint" />
            <mxPoint x="994" y="338.66" as="targetPoint" />
          </mxGeometry>
        </mxCell>
        <mxCell id="XqvDmJnWtBqZGA_1w7zV-27" value="입력 에러 &lt;br&gt;출력" style="ellipse;whiteSpace=wrap;html=1;strokeColor=#1C1C1C;labelBackgroundColor=none;fontColor=#050505;fillColor=#FFFFFF;" parent="1" vertex="1">
          <mxGeometry x="970" y="470" width="80" height="50" as="geometry" />
        </mxCell>
        <mxCell id="XqvDmJnWtBqZGA_1w7zV-28" value="&amp;lt;&amp;lt;extend&amp;gt;&amp;gt;" style="endArrow=open;html=1;rounded=0;exitX=0;exitY=0.5;exitDx=0;exitDy=0;entryX=0.5;entryY=1;entryDx=0;entryDy=0;dashed=1;endFill=0;strokeColor=#1C1C1C;labelBackgroundColor=#FFFFFF;fontColor=#050505;verticalAlign=bottom;" parent="1" source="XqvDmJnWtBqZGA_1w7zV-27" target="XqvDmJnWtBqZGA_1w7zV-13" edge="1">
          <mxGeometry width="50" height="50" relative="1" as="geometry">
            <mxPoint x="814" y="448.66" as="sourcePoint" />
            <mxPoint x="864" y="398.66" as="targetPoint" />
          </mxGeometry>
        </mxCell>
        <mxCell id="gj4lbtzxN4pZ7QAzOITK-2" value="SaleAnalysis" style="rounded=0;whiteSpace=wrap;html=1;fillColor=none;verticalAlign=top;" vertex="1" parent="1">
          <mxGeometry x="150" y="240" width="1030" height="320" as="geometry" />
        </mxCell>
      </root>
    </mxGraphModel>
  </diagram>
</mxfile>
